<svg xmlns="http://www.w3.org/2000/svg" xmlns:xlink="http://www.w3.org/1999/xlink" width="30" height="30" viewBox="0 0 30 30"><defs><clipPath id="b"><rect width="30" height="30"/></clipPath></defs><g id="a" clip-path="url(#b)"><rect width="30" height="30" fill="#cb444a"/><path d="M6.3,10.728v17.6a1.789,1.789,0,0,0,1.806,1.76H24.364a1.789,1.789,0,0,0,1.806-1.76v-17.6H6.3Zm5.418,15.839H9.916V14.247h1.806Zm3.612,0H13.528V14.247h1.806Zm3.612,0H17.14V14.247h1.806Zm3.612,0H20.752V14.247h1.806ZM26.621,5.448H20.752v-2.2A1.341,1.341,0,0,0,19.4,1.928H13.077a1.341,1.341,0,0,0-1.354,1.32v2.2H5.853A1.341,1.341,0,0,0,4.5,6.768v2.2H27.976v-2.2a1.341,1.341,0,0,0-1.354-1.32Zm-7.675,0H13.528V3.71h5.418V5.448Z" transform="translate(-1.499 -0.928)" fill="#fff"/></g></svg>