<svg xmlns="http://www.w3.org/2000/svg" xmlns:xlink="http://www.w3.org/1999/xlink" width="30" height="30" viewBox="0 0 30 30"><defs><style>.a{clip-path:url(#b);}.b{fill:#fff;}</style><clipPath id="b"><rect width="30" height="30"/></clipPath></defs><g id="a" class="a"><rect class="b" width="30" height="30"/><path d="M27.845,10.367,25.616,31.082H18.089l-2.22-20.818h9.19l1.816-7.439,1.03.368-1.743,7.159,1.683.015ZM14.805,22.351s.281-2.686-3.622-2.686H4.967c-3.9,0-3.622,2.686-3.622,2.686h13.46ZM1.345,28.4s-.276,2.686,3.622,2.686h6.217c3.9,0,3.622-2.686,3.622-2.686H1.345Zm12.876-1.343c.639,0,1.155-.748,1.155-1.678s-.516-1.68-1.155-1.68H1.875c-.636,0-1.155.744-1.155,1.68s.519,1.678,1.155,1.678H14.221Z" transform="translate(0.28 -1.825)"/></g></svg>